<?xml version="1.0" standalone="no"?>
<!DOCTYPE svg PUBLIC "-//W3C//DTD SVG 20010904//EN"
 "http://www.w3.org/TR/2001/REC-SVG-20010904/DTD/svg10.dtd">
<svg version="1.0" xmlns="http://www.w3.org/2000/svg"
 width="1024.000000pt" height="383.000000pt" viewBox="0 0 1024.000000 383.000000"
 preserveAspectRatio="xMidYMid meet">

<g transform="translate(0.000000,383.000000) scale(0.100000,-0.100000)"
fill="#000000" stroke="none">
<path d="M0 1915 l0 -1915 5120 0 5120 0 0 1915 0 1915 -5120 0 -5120 0 0
-1915z m3098 669 c34 -7 84 -25 112 -39 27 -14 53 -25 57 -25 5 0 14 14 20 30
l11 30 101 0 101 0 0 -265 0 -265 -108 0 -108 0 -18 75 c-34 146 -109 251
-195 275 -114 32 -221 -12 -272 -112 -42 -81 -53 -162 -53 -373 -1 -210 11
-289 55 -376 41 -82 128 -127 227 -115 100 12 116 42 110 210 -4 127 -10 136
-95 136 l-53 0 0 95 0 95 355 0 355 0 0 -95 0 -95 -53 0 c-94 0 -92 8 -95
-274 l-3 -246 -114 0 -115 0 -20 40 c-11 22 -23 40 -26 40 -2 0 -22 -9 -44
-20 -110 -56 -224 -83 -355 -82 -195 1 -325 51 -446 172 -119 117 -173 252
-186 458 -21 343 139 608 426 708 116 40 296 48 429 18z m4382 0 c47 -9 118
-29 158 -45 41 -16 75 -29 77 -29 3 0 11 14 20 30 15 30 16 30 105 30 l90 0 0
-225 0 -225 -104 0 -103 0 -21 58 c-50 137 -149 207 -308 219 -132 10 -234
-49 -234 -136 0 -66 60 -101 235 -141 419 -94 558 -185 596 -393 25 -136 -17
-262 -118 -358 -98 -93 -236 -139 -421 -139 -140 0 -258 26 -424 95 -12 5 -23
-3 -40 -29 l-23 -36 -87 0 -88 0 0 240 0 240 93 0 93 0 13 -37 c34 -96 127
-200 218 -243 157 -74 352 -32 369 80 12 83 -52 125 -306 200 -297 87 -386
133 -453 232 -46 68 -61 128 -55 232 5 105 44 191 117 259 136 127 337 168
601 121z m-2800 -24 c265 -20 378 -97 396 -267 14 -133 -52 -239 -191 -307
l-70 -34 44 -12 c189 -51 284 -158 284 -320 1 -177 -75 -271 -260 -322 -74
-21 -103 -22 -575 -26 l-498 -3 0 90 0 91 63 0 c110 0 102 -39 102 465 0 504
8 465 -102 465 l-63 0 0 95 0 95 373 0 c204 0 428 -5 497 -10z m1517 0 c265
-20 384 -91 428 -255 35 -129 2 -268 -82 -346 -92 -84 -190 -108 -475 -116
l-208 -6 0 -173 c0 -213 1 -214 110 -214 l70 0 0 -90 0 -90 -390 0 -390 0 0
90 0 90 65 0 c112 0 105 -32 105 463 0 498 7 467 -101 467 l-69 0 0 95 0 95
403 0 c221 0 461 -5 534 -10z"/>
<path d="M4400 2205 l0 -178 83 5 c140 7 192 56 192 178 -1 123 -44 161 -187
168 l-88 4 0 -177z"/>
<path d="M4400 1655 l0 -205 88 0 c154 0 211 48 220 185 5 87 -7 131 -51 172
-43 41 -85 53 -178 53 l-79 0 0 -205z"/>
<path d="M5860 2184 l0 -187 104 5 c120 7 168 25 202 76 44 65 40 188 -8 239
-38 42 -78 53 -193 53 l-105 0 0 -186z"/>
</g>
</svg>
